<?xml version="1.0" encoding="UTF-8"?>
<svg id="Layer_1" data-name="Layer 1" xmlns="http://www.w3.org/2000/svg" viewBox="0 0 64 64">
  <defs>
    <style>
      .cls-1 {
        fill: #000;
      }

      .cls-1, .cls-2, .cls-3, .cls-4, .cls-5, .cls-6 {
        stroke-width: 0px;
      }

      .cls-2 {
        fill: #e669a0;
      }

      .cls-3 {
        fill: #f6b519;
      }

      .cls-4 {
        fill: #3fa3db;
      }

      .cls-5 {
        fill: #221f1f;
      }

      .cls-6 {
        fill: #fff;
      }
    </style>
  </defs>
  <rect class="cls-6" width="64" height="64" rx="15.22" ry="15.22"/>
  <path class="cls-3" d="M55.2,31.9c0,4.29-1.09,8.31-2.99,11.8-.11-.01-.22-.03-.34-.04-3.75-.42-11.31-.7-20.03-.7s-16.28.29-20.03.7c-.12.01-.23.03-.33.04-1.9-3.49-2.99-7.51-2.99-11.8,0-13.3,10.46-24.07,23.35-24.07s23.35,10.78,23.35,24.07Z"/>
  <path class="cls-1" d="M56.93,44.09c0,.24-1.16.46-3.2.65h0l-9.96.52c-3.55.1-7.61.16-11.93.16s-8.38-.06-11.93-.16c-3.8-.11-7-.27-9.3-.46-.23-.02-.45-.04-.66-.06-2.04-.19-3.2-.41-3.2-.65,0-.2.87-.4,2.42-.57.12-.01.24-.03.37-.04,4.17-.43,12.59-.72,22.29-.72s18.12.29,22.29.72c.13.01.25.03.37.04,1.55.17,2.42.37,2.42.57h0Z"/>
  <path class="cls-4" d="M6.91,53.18s-.04,0-.05-.02c-.02-.01-.03-.03-.03-.06l-.11-4.93s-1.07.08-1.07.08c-.04,0-.07-.03-.08-.07l-.1-1.19s0-.04.02-.06c.01-.02.03-.03.05-.03,0,0,3.5-.22,3.5-.22.02,0,.04,0,.05.02.02.02.02.04.02.06v1.16s-.03.08-.07.08l-1.04.08.15,4.87s-.03.08-.07.08l-1.17.13h0Z"/>
  <path class="cls-4" d="M8.6,52.99s-.04,0-.05-.02c-.02-.01-.02-.03-.03-.06l-.16-4.24s.03-.08.07-.08l1.06-.09h0s.04,0,.05.02c.02.01.02.03.03.06l.02.56c.13-.13.26-.22.39-.3.17-.09.34-.13.5-.13.02,0,.03,0,.05,0,.17,0,.33.05.49.13.16.08.3.2.41.35.1.15.19.32.25.5.06.18.09.4.08.63-.01.23-.07.47-.16.69-.01.03-.04.05-.07.05h0l-1.01-.09s-.05-.02-.06-.04c-.01-.02-.01-.05,0-.07.13-.26.12-.51-.02-.74-.09-.15-.19-.23-.31-.23-.03,0-.05,0-.08.01-.13.03-.25.15-.35.37l.09,2.57s-.03.08-.07.08c0,0-1.11.08-1.12.08h0Z"/>
  <path class="cls-4" d="M14.79,53.1s-.07-.03-.07-.07l-.08-.49c-.2.3-.55.46-1.03.46-.43,0-.78-.09-1.04-.27-.27-.18-.44-.42-.5-.71-.07-.27-.09-.58-.08-.89.01-.32.07-.63.17-.93.1-.3.19-.56.29-.77.1-.22.18-.37.26-.46.01-.02.03-.03.06-.03l1.16.04s.05.02.07.04c.01.03.01.06,0,.08-.12.18-.24.41-.35.69-.12.28-.22.58-.3.9-.08.3-.08.56,0,.77.08.19.24.29.51.29.46,0,.69-.74.69-2.19v-.16s.03-.08.07-.08c0,0,1.04-.05,1.04-.05.04,0,.07.03.08.07.01.16.02.52.03,1.08,0,.56.03,1.07.06,1.51.03.43.08.75.14.94,0,.02,0,.05,0,.07-.01.02-.03.03-.06.04l-1.08.13h0Z"/>
  <path class="cls-4" d="M18.34,53.12c-.6,0-1.13-.23-1.56-.67-.43-.45-.65-.99-.65-1.62s.22-1.17.65-1.62c.43-.45.95-.67,1.56-.67s1.13.23,1.56.67c.43.45.65.99.65,1.62s-.22,1.17-.65,1.62c-.43.45-.95.67-1.56.67ZM18.33,49.76c-.29,0-.53.1-.73.31-.2.21-.3.46-.3.75s.1.54.3.75c.2.21.44.31.73.31s.53-.1.73-.31c.2-.21.3-.46.3-.75s-.1-.54-.3-.75c-.2-.21-.44-.31-.73-.31Z"/>
  <path class="cls-4" d="M20.95,52.9s-.04,0-.05-.02c-.02-.01-.02-.03-.03-.06l-.14-3.75s0-.04.02-.06c.01-.02.03-.02.05-.02h1.09s.07.03.08.07v.23c.44-.21.83-.32,1.16-.32.14,0,.27.02.39.06.43.14.74.42.94.84.19.41.28.89.27,1.44-.01.54-.12,1.05-.32,1.52-.01.03-.04.05-.07.05l-1.16-.02s-.05-.01-.06-.03c-.01-.02-.02-.05,0-.07.08-.23.15-.5.21-.78.05-.29.09-.58.1-.87.01-.28-.03-.51-.13-.7-.09-.18-.22-.27-.4-.29-.05,0-.09,0-.13,0-.28,0-.47.11-.58.35-.04.1-.07.25-.08.43-.01.18-.02.35-.01.51,0,.15.02.37.04.66.02.3.04.51.04.66v.03s-.03.08-.07.08c0,0-1.16.09-1.16.09h0Z"/>
  <path class="cls-4" d="M26.55,54.55c-.17,0-.36-.01-.56-.03-.03,0-.06-.03-.07-.06l-.22-1.09s0-.05.02-.07c.01-.02.03-.02.05-.02,0,0,0,0,.01,0,.11.02.23.04.34.05.03,0,.07,0,.11,0,.1,0,.21,0,.35-.02.19-.02.34-.07.47-.14.12-.07.22-.19.31-.36.07-.15.1-.33.09-.54-.37.23-.76.35-1.15.36h-.05c-.42,0-.78-.15-1.09-.44-.32-.31-.49-.75-.51-1.32.01-.73.26-1.29.75-1.68.31-.25.67-.37,1.08-.37.19,0,.4.03.61.09v-.3s.03-.07.07-.08l1.02-.09h0s.07.03.08.07c.02.11.04.28.07.5.03.22.05.38.07.47.2,1.35.3,2.31.28,2.85-.02,1.03-.35,1.71-.98,2.01-.31.15-.7.23-1.16.23h0ZM26.65,50c-.21,0-.4.07-.55.21-.15.14-.21.32-.19.55.02.22.09.38.2.48.11.09.23.14.36.14.01,0,.02,0,.03,0,.16,0,.31-.05.46-.11.14-.06.24-.13.32-.22,0-.17-.03-.5-.07-.97-.18-.05-.37-.07-.57-.07Z"/>
  <path class="cls-5" d="M6.53,52.83s-.05-.01-.08-.03c-.02-.02-.04-.05-.04-.09l-.11-4.89-1.03.08h0c-.06,0-.11-.05-.11-.11l-.1-1.19s0-.06.03-.09c.02-.02.05-.04.08-.04,0,0,3.5-.22,3.5-.22.03,0,.06.01.08.03.02.02.04.05.04.09v1.16c0,.06-.05.11-.11.12l-1,.08.14,4.84c0,.06-.04.11-.1.12l-1.17.13h-.01,0Z"/>
  <path class="cls-5" d="M8.22,52.64s-.06-.01-.08-.03c-.02-.02-.04-.05-.04-.08l-.16-4.24c0-.06.04-.12.1-.12l1.06-.09h0s.05.01.08.03c.02.02.04.05.04.08l.02.47c.11-.1.22-.18.34-.24.18-.09.35-.14.51-.14.02,0,.03,0,.05,0,.17,0,.34.05.51.13.17.08.31.2.42.36.11.15.19.33.26.51.07.19.09.41.08.64-.01.24-.07.47-.17.71-.02.04-.06.07-.1.07h-.01l-1.01-.09s-.07-.03-.09-.06c-.02-.03-.02-.08,0-.11.13-.25.12-.48-.02-.71-.08-.14-.17-.21-.28-.21-.02,0-.05,0-.07,0-.12.03-.23.14-.32.34l.09,2.56c0,.06-.04.12-.11.12l-1.11.08h0Z"/>
  <path class="cls-5" d="M14.41,52.75c-.05,0-.1-.04-.11-.1l-.07-.4c-.21.26-.55.4-1.01.4s-.8-.09-1.07-.28c-.28-.19-.45-.44-.52-.73-.07-.28-.09-.58-.08-.91.01-.32.07-.64.17-.94.1-.3.19-.56.29-.78.1-.23.19-.38.27-.47.02-.02.05-.04.08-.04,0,0,1.16.04,1.16.04.04,0,.08.03.1.06.02.04.02.08,0,.12-.12.18-.23.41-.35.68-.12.28-.22.58-.3.89-.08.3-.08.54,0,.74.05.11.14.26.47.26.42,0,.65-.74.65-2.15v-.16c0-.06.05-.11.11-.12,0,0,1.04-.05,1.05-.05.06,0,.11.05.11.11.01.16.02.52.03,1.09,0,.56.03,1.07.06,1.51.03.43.08.74.14.93.01.03,0,.07,0,.1-.02.03-.05.05-.08.05l-1.08.13h-.01,0Z"/>
  <path class="cls-5" d="M17.96,52.77c-.61,0-1.15-.23-1.58-.68-.44-.45-.66-1.01-.66-1.64s.22-1.19.66-1.64c.44-.45.97-.68,1.58-.68s1.15.23,1.58.68c.44.45.66,1.01.66,1.64s-.22,1.19-.66,1.64c-.44.45-.97.68-1.58.68ZM17.95,49.4c-.28,0-.51.1-.7.3-.2.2-.29.44-.29.73s.1.52.29.73c.2.2.43.3.7.3s.51-.1.7-.3c.2-.2.29-.44.29-.73s-.1-.52-.29-.73c-.2-.2-.43-.3-.7-.3h0Z"/>
  <path class="cls-5" d="M20.57,52.54s-.06-.01-.08-.03c-.02-.02-.04-.05-.04-.08l-.14-3.75s0-.06.03-.09c.02-.02.05-.04.08-.04h1.09c.06,0,.11.05.11.11v.17c.43-.2.8-.3,1.12-.3.14,0,.28.02.4.06.44.14.76.43.96.86.19.41.28.9.27,1.45-.01.55-.12,1.06-.32,1.53-.02.04-.06.07-.1.07l-1.16-.02s-.07-.02-.09-.05c-.02-.03-.03-.07-.01-.11.08-.23.15-.49.21-.78.05-.28.09-.57.1-.86.01-.27-.03-.5-.12-.68-.08-.17-.2-.25-.37-.27-.05,0-.09,0-.13,0-.27,0-.44.11-.54.32-.04.1-.07.24-.08.41-.01.18-.02.35-.01.5,0,.15.02.37.04.66.02.3.04.51.04.66v.03c0,.06-.05.11-.11.12l-1.15.09h0,0Z"/>
  <path class="cls-5" d="M26.17,54.19c-.18,0-.37-.01-.56-.03-.05,0-.09-.04-.1-.09l-.22-1.09s0-.08.03-.11c.02-.02.05-.03.08-.03,0,0,.01,0,.02,0,.11.02.23.04.34.05.03,0,.07,0,.11,0,.09,0,.21,0,.34-.02.18-.02.33-.06.46-.13.11-.07.21-.18.29-.35.06-.12.09-.28.09-.46-.36.21-.73.32-1.11.33h-.05c-.43,0-.8-.15-1.11-.45-.33-.31-.5-.76-.53-1.34.01-.74.27-1.32.76-1.71.32-.25.69-.38,1.1-.38.18,0,.37.03.57.08v-.25c0-.06.05-.11.1-.12l1.02-.09h.01c.06,0,.1.04.11.1.02.11.04.28.07.5.03.22.05.38.07.47.2,1.35.3,2.31.28,2.86-.02,1.04-.36,1.73-1,2.04-.32.15-.71.23-1.18.23h0ZM26.27,49.64c-.21,0-.38.07-.53.2-.14.13-.2.3-.17.52.02.21.08.36.19.45.1.09.21.13.34.13,0,0,.02,0,.03,0,.15,0,.3-.05.45-.11.13-.06.23-.12.3-.2,0-.17-.03-.48-.07-.93-.17-.04-.35-.06-.54-.06h0Z"/>
  <path class="cls-4" d="M5.27,47.79l-.1-1.19,3.5-.22v1.16l-1.11.09.15,4.95-1.17.13-.11-5.01-1.15.09Z"/>
  <path class="cls-4" d="M8.07,48.28l1.06-.09.03.74c.16-.18.32-.32.5-.42.18-.09.34-.13.5-.13.16,0,.31.05.46.12.15.07.28.18.38.33.1.15.18.31.24.48.06.18.09.38.07.6-.01.22-.06.45-.16.67l-1.01-.09c.14-.29.14-.56-.03-.82-.13-.21-.29-.3-.48-.25-.16.04-.3.18-.41.43l.1,2.59-1.11.08-.16-4.24h0Z"/>
  <path class="cls-4" d="M12.22,52.27c-.25-.17-.41-.39-.47-.66-.06-.27-.09-.56-.07-.87.01-.31.07-.62.16-.91.1-.3.19-.55.29-.76.1-.22.18-.36.25-.44l1.15.04c-.12.18-.24.42-.36.7-.12.28-.22.59-.3.91-.08.32-.08.59,0,.82.09.22.28.34.58.34.51,0,.76-.75.76-2.26v-.16l1.04-.04c.01.16.02.51.03,1.08,0,.56.03,1.07.06,1.51.03.44.08.76.15.96l-1.08.13-.12-.72c-.16.41-.51.62-1.07.62-.42,0-.75-.09-1-.26h0Z"/>
  <path class="cls-4" d="M17.96,52.65c-.58,0-1.08-.22-1.5-.65-.42-.43-.62-.95-.62-1.56s.21-1.13.62-1.56c.42-.43.92-.65,1.5-.65s1.08.22,1.5.65c.42.43.62.95.62,1.56s-.21,1.13-.62,1.56c-.42.43-.92.65-1.5.65ZM17.95,49.28c-.31,0-.57.11-.79.34-.22.22-.33.49-.33.81s.11.59.33.81c.22.22.48.34.79.34s.57-.11.79-.34c.22-.22.33-.49.33-.81s-.11-.59-.33-.81c-.22-.22-.48-.34-.79-.34Z"/>
  <path class="cls-4" d="M20.57,52.42l-.14-3.75h1.09l.02.35c.65-.34,1.18-.44,1.58-.31.41.13.7.4.89.8.19.4.27.87.26,1.4-.01.53-.12,1.03-.31,1.49l-1.15-.02c.09-.24.16-.5.21-.8.05-.29.09-.58.1-.88.01-.29-.03-.54-.13-.74-.1-.2-.26-.31-.46-.33-.39-.04-.65.09-.78.38-.05.11-.08.26-.09.45-.01.19-.02.36-.01.51,0,.16.02.38.04.67.02.29.04.51.04.66v.03l-1.15.09h0Z"/>
  <path class="cls-4" d="M25.4,52.95c.12.02.23.04.35.05.12,0,.28,0,.47-.02.2-.02.36-.07.5-.15.14-.08.25-.21.34-.4.09-.19.12-.43.09-.71-.39.27-.8.41-1.22.42-.42.01-.78-.13-1.08-.42-.3-.29-.47-.71-.49-1.26.01-.7.25-1.24.72-1.62s1.04-.45,1.72-.25v-.4l1.02-.09c.02.11.04.28.07.5.03.22.05.38.07.47.2,1.35.3,2.3.28,2.84-.02,1-.34,1.65-.94,1.94-.42.2-.98.26-1.68.19l-.22-1.09h0ZM25.69,50.9c.13.11.28.17.45.16.17,0,.33-.05.49-.12.16-.07.28-.16.37-.26,0-.17-.03-.53-.08-1.06-.2-.06-.41-.09-.64-.09s-.43.08-.6.23c-.17.15-.24.36-.21.62.02.24.1.41.23.53h0Z"/>
  <path class="cls-2" d="M31.35,53.05c-.4,0-.86-.08-1.35-.23-.03-.01-.06-.04-.05-.08l.3-5.99s.03-.07.07-.07c.23-.03.45-.05.67-.05.27,0,.54.03.78.08.44.1.82.27,1.11.5.3.23.55.52.75.84.2.33.34.68.41,1.05.07.37.1.75.07,1.13-.04.46-.16.89-.35,1.28-.19.39-.46.72-.8,1-.34.28-.77.45-1.26.51-.11.01-.22.02-.34.02h0ZM31.22,51.71c.11.02.21.03.3.03.31,0,.57-.11.79-.34.3-.31.47-.73.52-1.25.04-.55-.06-1.05-.32-1.49-.24-.41-.59-.61-1.05-.63l-.23,3.67Z"/>
  <path class="cls-2" d="M37.13,53.1s-.07-.03-.07-.07l-.08-.49c-.2.3-.55.46-1.03.46-.43,0-.78-.09-1.04-.27-.27-.18-.44-.42-.5-.71-.07-.27-.09-.58-.08-.89.01-.32.07-.63.17-.93.1-.3.19-.56.29-.77.1-.22.18-.37.26-.46.01-.02.03-.03.06-.03l1.16.04s.05.02.07.04c.01.03.01.06,0,.08-.12.18-.24.41-.35.69-.12.28-.22.58-.3.9-.08.3-.08.56,0,.77.08.19.24.29.51.29.46,0,.69-.74.69-2.19v-.16s.03-.08.07-.08c0,0,1.04-.05,1.04-.05.04,0,.07.03.08.07.01.16.02.52.03,1.08,0,.56.03,1.07.06,1.51.03.43.08.75.14.94,0,.02,0,.05,0,.07-.01.02-.03.03-.06.04l-1.08.13h0Z"/>
  <path class="cls-2" d="M38.69,52.9s-.04,0-.05-.02c-.02-.01-.02-.03-.03-.06l-.14-3.75s0-.04.02-.06c.01-.02.03-.02.05-.02h1.09s.07.03.08.07v.23c.44-.21.83-.32,1.16-.32.14,0,.27.02.39.06.43.14.74.42.94.84.19.41.28.89.27,1.44-.01.54-.12,1.05-.32,1.52-.01.03-.04.05-.07.05l-1.16-.02s-.05-.01-.06-.03c-.01-.02-.02-.05,0-.07.08-.23.15-.5.21-.78.05-.29.09-.58.1-.87.01-.28-.03-.51-.13-.7-.09-.18-.22-.27-.4-.29-.05,0-.09,0-.13,0-.28,0-.47.11-.58.35-.04.1-.07.25-.08.43-.01.18-.02.35-.01.51,0,.15.02.37.04.66.02.3.04.51.04.66v.03s-.03.08-.07.08c0,0-1.16.09-1.16.09h0Z"/>
  <path class="cls-2" d="M44.29,54.55c-.17,0-.36-.01-.56-.03-.03,0-.06-.03-.07-.06l-.22-1.09s0-.05.02-.07c.01-.02.03-.02.05-.02,0,0,.01,0,.01,0,.11.02.23.04.34.05.03,0,.07,0,.11,0,.1,0,.21,0,.35-.02.19-.02.34-.07.47-.14.12-.07.22-.19.31-.36.07-.15.1-.33.09-.54-.37.23-.76.35-1.15.36h-.05c-.42,0-.78-.15-1.09-.44-.32-.31-.49-.75-.51-1.32.01-.73.26-1.29.75-1.68.31-.25.67-.37,1.08-.37.19,0,.4.03.61.09v-.3s.03-.07.07-.08l1.02-.09h0s.07.03.08.07c.02.11.04.28.07.5.03.22.05.38.07.47.2,1.35.3,2.31.28,2.85-.02,1.03-.35,1.71-.98,2.01-.31.15-.7.23-1.16.23h0ZM44.4,50c-.21,0-.4.07-.55.21-.15.14-.21.32-.19.55.02.22.09.38.2.48.11.09.23.14.36.14.01,0,.02,0,.03,0,.16,0,.31-.05.46-.11.14-.06.24-.13.32-.22,0-.17-.03-.5-.07-.97-.18-.05-.37-.07-.57-.07h0Z"/>
  <path class="cls-5" d="M30.97,52.7c-.41,0-.87-.08-1.37-.23-.05-.02-.08-.07-.08-.12l.3-5.99c0-.06.04-.1.1-.11.23-.03.46-.05.67-.05.27,0,.54.03.79.09.45.1.83.27,1.13.51.3.23.55.52.76.85.2.33.34.69.42,1.07.07.37.1.76.07,1.14-.04.47-.16.9-.35,1.29-.19.39-.46.73-.81,1.01-.35.28-.78.46-1.28.52-.11.01-.23.02-.35.02h0ZM30.87,51.28c.09.02.18.02.26.02.3,0,.55-.11.76-.33.29-.31.46-.72.51-1.23.04-.54-.06-1.04-.32-1.46-.23-.39-.55-.59-.98-.61l-.23,3.6h0Z"/>
  <path class="cls-5" d="M36.75,52.75c-.05,0-.1-.04-.11-.1l-.07-.4c-.21.26-.55.4-1.01.4s-.8-.09-1.07-.28c-.28-.19-.45-.44-.52-.73-.07-.28-.09-.58-.08-.91.01-.32.07-.64.17-.94.1-.3.19-.56.29-.78.1-.23.19-.38.27-.47.02-.02.05-.04.08-.04,0,0,1.16.04,1.16.04.04,0,.08.03.1.06s.02.08,0,.12c-.12.18-.23.41-.35.68-.12.28-.22.58-.3.89-.08.3-.08.54,0,.74.05.11.14.26.47.26.42,0,.65-.74.65-2.15v-.16c0-.06.05-.11.11-.12,0,0,1.04-.05,1.05-.05.06,0,.11.05.11.11.01.16.02.52.03,1.09,0,.56.03,1.07.06,1.51.03.43.08.74.14.93.01.03,0,.07,0,.1-.02.03-.05.05-.08.05l-1.08.13h-.01,0Z"/>
  <path class="cls-5" d="M38.31,52.54s-.06-.01-.08-.03c-.02-.02-.04-.05-.04-.08l-.14-3.75s0-.06.03-.09c.02-.02.05-.04.08-.04h1.09c.06,0,.11.05.11.11v.17c.43-.2.8-.3,1.12-.3.14,0,.28.02.4.06.44.14.76.43.96.86.19.41.28.9.27,1.45-.01.55-.12,1.06-.32,1.53-.02.04-.06.07-.1.07l-1.16-.02s-.07-.02-.09-.05c-.02-.03-.03-.07-.01-.11.08-.23.15-.49.21-.78.05-.28.09-.57.1-.86.01-.27-.03-.5-.12-.68-.08-.17-.2-.25-.37-.27-.05,0-.09,0-.13,0-.27,0-.44.11-.54.32-.04.1-.07.24-.08.41-.01.18-.02.35-.01.5,0,.15.02.37.04.66.02.3.04.51.04.66v.03c0,.06-.05.11-.11.12l-1.15.09h0Z"/>
  <path class="cls-5" d="M43.91,54.19c-.18,0-.37-.01-.56-.03-.05,0-.09-.04-.1-.09l-.22-1.09s0-.08.03-.11c.02-.02.05-.03.08-.03,0,0,.01,0,.02,0,.11.02.23.04.34.05.03,0,.07,0,.11,0,.09,0,.21,0,.34-.02.18-.02.33-.06.46-.13.11-.07.21-.18.29-.35.06-.12.09-.28.09-.46-.36.21-.73.32-1.11.33h-.05c-.43,0-.8-.15-1.11-.45-.33-.31-.5-.76-.53-1.34.01-.74.27-1.32.76-1.71.32-.25.69-.38,1.1-.38.18,0,.37.03.57.08v-.25c0-.06.05-.11.1-.12l1.02-.09h.01c.06,0,.1.04.11.1.02.11.04.28.07.5.03.22.05.38.07.47.2,1.35.3,2.32.28,2.86-.02,1.04-.36,1.73-1,2.04-.32.15-.71.23-1.18.23h0ZM44.02,49.64c-.21,0-.38.07-.53.2-.14.13-.2.3-.17.52.02.21.08.36.19.45.1.09.21.13.34.13,0,0,.02,0,.03,0,.15,0,.3-.05.45-.11.13-.06.23-.12.3-.2,0-.17-.03-.48-.07-.93-.17-.04-.35-.06-.54-.06h0Z"/>
  <path class="cls-2" d="M29.93,46.37c.51-.08.99-.07,1.42.03.43.1.8.26,1.08.49.29.23.53.5.73.82.2.32.33.67.4,1.03.07.36.09.73.07,1.11-.04.45-.15.87-.34,1.25-.19.38-.44.7-.78.98-.33.27-.74.44-1.22.49-.48.06-1.04-.01-1.67-.21l.3-5.99h0ZM30.76,51.38c.5.12.91.02,1.22-.31.31-.33.49-.76.54-1.3.05-.57-.07-1.08-.33-1.53-.27-.45-.66-.67-1.18-.67l-.24,3.81h0Z"/>
  <path class="cls-2" d="M34.56,52.27c-.25-.17-.41-.39-.47-.66-.06-.27-.09-.56-.07-.87.01-.31.07-.62.16-.91.1-.3.19-.55.29-.76.1-.22.18-.36.25-.44l1.15.04c-.12.18-.24.42-.36.7-.12.28-.22.59-.3.91-.08.32-.08.59,0,.82.09.22.28.34.58.34.51,0,.76-.75.76-2.26v-.16l1.04-.04c.01.16.02.51.03,1.08,0,.56.03,1.07.06,1.51.03.44.08.76.15.96l-1.08.13-.12-.72c-.16.41-.51.62-1.07.62-.42,0-.75-.09-1-.26h0Z"/>
  <path class="cls-2" d="M38.31,52.42l-.14-3.75h1.09l.02.35c.65-.34,1.18-.44,1.58-.31.41.13.7.4.89.8.18.4.27.87.26,1.4-.01.53-.12,1.03-.31,1.49l-1.15-.02c.09-.24.16-.5.21-.8.05-.29.09-.58.1-.88.01-.29-.03-.54-.13-.74-.1-.2-.26-.31-.46-.33-.39-.04-.65.09-.78.38-.05.11-.08.26-.09.45-.01.19-.02.36-.01.51,0,.16.02.38.04.67.02.29.04.51.04.66v.03l-1.15.09h0Z"/>
  <path class="cls-2" d="M43.14,52.95c.12.02.23.04.35.05.12,0,.28,0,.47-.02.2-.02.36-.07.5-.15.14-.08.25-.21.34-.4.09-.19.12-.43.09-.71-.39.27-.8.41-1.22.42-.42.01-.78-.13-1.08-.42-.3-.29-.47-.71-.49-1.26.01-.7.25-1.24.72-1.62.47-.37,1.04-.45,1.72-.25v-.4l1.02-.09c.02.11.04.28.07.5.03.22.05.38.07.47.2,1.35.29,2.3.28,2.84-.02,1-.34,1.65-.94,1.94-.42.2-.98.26-1.68.19l-.22-1.09h0ZM43.43,50.9c.13.11.28.17.45.16.17,0,.33-.05.49-.12.16-.07.28-.16.37-.26,0-.17-.03-.53-.08-1.06-.2-.06-.41-.09-.64-.09s-.43.08-.6.23c-.17.15-.24.36-.21.62.02.24.1.41.23.53h0Z"/>
  <path class="cls-3" d="M48.05,53.17s-.07-.03-.08-.07l-.71-6.24s0-.04.02-.06c.01-.02.03-.03.05-.03l1.06-.11h0s.07.03.08.07l.06.43c.18-.19.38-.33.62-.41.18-.07.36-.1.54-.1.1,0,.21.01.31.03.27.06.53.17.77.32.24.16.43.38.57.67.13.29.18.6.15.93-.01.45-.15.85-.42,1.18-.27.33-.6.53-.98.6-.1.02-.19.03-.29.03-.27,0-.55-.06-.84-.19l.27,2.73s-.03.08-.07.09l-1.1.13h0,0ZM48.82,49.02c.22.13.43.2.63.2.02,0,.03,0,.05,0,.23-.01.41-.08.57-.22.15-.13.22-.28.22-.45,0-.16-.08-.3-.22-.42-.14-.12-.31-.2-.48-.23-.04,0-.08,0-.12,0-.13,0-.26.04-.4.11-.16.09-.27.24-.32.45l.06.57h0Z"/>
  <path class="cls-3" d="M53.34,53.09c-.18,0-.36-.02-.54-.06-.31-.07-.58-.19-.82-.36-.24-.17-.44-.4-.6-.69-.16-.29-.25-.62-.27-.98-.05-.91.23-1.61.84-2.11.41-.34.88-.51,1.39-.51.07,0,.15,0,.22.01.6.06,1.05.33,1.35.8.29.46.36,1.06.2,1.77,0,.03-.03.06-.07.06l-2.61.26c.06.23.18.4.37.51.13.07.28.11.43.11.1,0,.21-.02.32-.05.28-.08.54-.25.77-.51.01-.02.04-.03.06-.03.01,0,.03,0,.04.01l.9.55s.03.03.04.05c0,.02,0,.04-.01.06-.2.3-.45.55-.74.73-.29.19-.59.31-.89.36-.12.02-.25.03-.37.03h0ZM53.41,49.62c-.27,0-.51.06-.72.18-.17.1-.27.26-.31.49l1.6-.12c-.03-.35-.21-.53-.57-.55h0Z"/>
  <path class="cls-3" d="M57.46,53.03c-.25,0-.47-.05-.66-.16-.22-.12-.39-.29-.51-.5-.11-.2-.2-.43-.27-.68-.07-.25-.11-.51-.12-.76-.01-.25-.01-.48,0-.69,0-.2.01-.38.02-.51,0-.05,0-.09,0-.11h-.58s-.07-.02-.08-.07l-.07-.99s0-.04.02-.06c.01-.02.03-.03.06-.03h.62l-.02-1.24s0-.04.02-.06c.01-.02.03-.02.05-.02h1.11s.08.03.08.08v1.17h.75s.08.03.08.08l.02,1.06s0,.04-.02.06c-.01.02-.03.02-.05.02h-.76c0,.08,0,.19,0,.34,0,.21,0,.41,0,.59,0,.18.01.37.03.57.02.19.06.34.12.45.07.13.15.14.2.14.11,0,.18-.05.22-.17.05-.13.07-.31.05-.51-.02-.22-.04-.41-.07-.56-.03-.16-.06-.29-.09-.41,0-.02,0-.05.01-.07.01-.02.04-.03.06-.03,0,0,1.12-.04,1.12-.04.03,0,.06.02.07.06.08.3.12.62.12.95,0,.33-.03.65-.1.96-.08.32-.23.59-.45.8-.22.21-.51.34-.85.36-.04,0-.08,0-.12,0h0Z"/>
  <path class="cls-5" d="M47.67,52.82c-.06,0-.11-.04-.11-.1l-.71-6.24s0-.06.02-.09c.02-.02.05-.04.08-.04l1.06-.11h.01c.06,0,.1.04.11.1l.05.36c.17-.16.36-.29.58-.36.18-.07.37-.1.55-.1.11,0,.21.01.32.03.28.06.54.17.78.32.25.16.44.39.58.68.14.29.19.61.16.95-.01.46-.15.87-.42,1.2-.27.34-.61.54-1,.62-.1.02-.2.03-.3.03-.25,0-.52-.06-.8-.17l.27,2.67c0,.06-.04.12-.1.13l-1.1.13h-.01ZM48.47,48.6c.21.12.41.19.6.19.01,0,.03,0,.04,0,.22-.01.4-.08.55-.21.14-.13.21-.26.2-.42,0-.15-.07-.28-.2-.39-.14-.12-.29-.19-.46-.22-.04,0-.07,0-.11,0-.13,0-.25.03-.38.1-.15.08-.25.22-.3.41l.06.55h0Z"/>
  <path class="cls-5" d="M52.95,52.73c-.18,0-.37-.02-.55-.06-.31-.07-.59-.2-.83-.37-.24-.17-.45-.41-.61-.71-.16-.3-.25-.63-.27-1-.05-.92.23-1.64.85-2.14.42-.34.89-.52,1.42-.52.07,0,.15,0,.23.01.61.06,1.08.34,1.38.81.3.47.37,1.08.21,1.8-.01.05-.05.09-.1.09l-2.57.26c.06.2.17.34.34.44.13.07.26.11.41.11.1,0,.2-.02.31-.04.28-.08.53-.25.75-.5.02-.03.05-.04.09-.04.02,0,.04,0,.06.02l.9.55s.05.04.05.08c0,.03,0,.07-.02.09-.2.3-.46.55-.75.74-.29.19-.6.31-.91.36-.13.02-.25.03-.38.03h0ZM53.03,49.27c-.27,0-.5.06-.7.17-.15.09-.24.22-.28.41l1.51-.12c-.04-.3-.21-.45-.53-.47Z"/>
  <path class="cls-5" d="M57.08,52.68c-.26,0-.48-.06-.68-.16-.23-.13-.4-.3-.52-.52-.11-.21-.21-.44-.28-.69-.07-.25-.11-.51-.12-.77-.01-.25-.01-.48,0-.69,0-.2.01-.38.02-.51,0-.03,0-.05,0-.07,0,0-.54,0-.54,0-.06,0-.11-.05-.11-.11l-.07-.99s0-.07.03-.09c.02-.02.05-.04.08-.04h.58l-.02-1.2s.01-.06.03-.08c.02-.02.05-.03.08-.03h1.11c.06,0,.11.05.11.12v1.13h.71c.06,0,.11.05.11.12l.02,1.06s-.01.06-.03.08c-.02.02-.05.03-.08.03h-.72c0,.07,0,.17,0,.31,0,.21,0,.41,0,.59s.01.37.03.56c.02.18.06.33.12.43.06.11.12.12.17.12.06,0,.14-.02.18-.14.05-.13.06-.3.04-.5-.02-.22-.04-.4-.07-.56-.03-.15-.06-.29-.09-.4,0-.03,0-.07.02-.1.02-.03.05-.05.09-.05,0,0,1.12-.04,1.12-.04.05,0,.1.04.11.09.08.31.12.63.13.96,0,.33-.03.66-.1.97-.08.33-.23.6-.46.82-.23.22-.52.35-.87.37-.04,0-.08,0-.12,0h0Z"/>
  <path class="cls-3" d="M47.67,52.7l-.71-6.24,1.06-.11.09.6c.19-.24.42-.42.69-.51.27-.1.54-.12.81-.06.27.06.51.16.75.31.23.15.41.36.54.64.13.27.18.57.15.89-.01.44-.14.82-.4,1.14-.25.32-.57.51-.94.58-.37.07-.78,0-1.21-.21l.29,2.86-1.1.13h0ZM48.36,48.68c.26.17.51.24.75.23.24-.01.45-.09.62-.24.17-.15.25-.32.24-.51,0-.18-.09-.34-.24-.48-.16-.13-.33-.22-.52-.25-.19-.03-.37,0-.56.11-.19.1-.31.27-.36.51l.07.63h0Z"/>
  <path class="cls-3" d="M51.61,48.55c.46-.38.98-.54,1.56-.48.58.06,1.01.31,1.29.76.28.45.35,1.02.19,1.71l-2.7.27c.05.3.2.51.43.64.23.13.5.16.8.07.3-.08.57-.26.81-.54l.9.55c-.2.29-.44.53-.72.71-.28.18-.57.3-.86.34-.29.05-.59.04-.88-.03-.3-.07-.56-.18-.79-.35-.23-.16-.42-.39-.58-.67-.15-.28-.24-.6-.26-.95-.05-.88.22-1.56.81-2.04h0ZM52.28,49.34c-.21.13-.33.34-.36.64l1.76-.13c-.01-.44-.23-.67-.65-.7-.29,0-.54.06-.75.19h0Z"/>
  <path class="cls-3" d="M54.96,49.15l-.07-.99h.69l-.02-1.32h1.11v1.24h.82l.02,1.06h-.83c0,.07,0,.21,0,.42,0,.22,0,.41,0,.59,0,.18.01.37.03.57.02.2.06.36.13.48.07.12.15.18.26.18.14,0,.24-.07.29-.22.05-.15.07-.33.05-.55-.02-.22-.04-.41-.07-.57-.03-.16-.06-.3-.1-.42l1.12-.04c.08.3.12.61.12.93,0,.32-.03.64-.1.94-.07.3-.21.56-.43.76-.21.2-.48.32-.8.34-.28.02-.53-.03-.74-.15-.21-.12-.37-.27-.48-.47-.11-.2-.2-.42-.26-.67-.07-.24-.11-.49-.12-.74-.01-.25-.01-.48,0-.68,0-.21.01-.37.02-.51,0-.13.01-.2,0-.2h-.65s0,0,0,0Z"/>
  <path class="cls-6" d="M6.66,49.08h-.09s-.02,0-.02.02l.03,1.62s0,.02.02.02h.09s.02,0,.02-.02l-.03-1.62s0-.02-.02-.02Z"/>
  <path class="cls-6" d="M6.61,48.99s.06-.03.06-.06-.03-.06-.06-.06-.06.03-.06.06.03.06.06.06Z"/>
  <path class="cls-6" d="M9.04,52.11h.08s.01-.01.01-.02l-.07-1.49s0-.01-.02-.01h-.08s-.01.01-.01.02l.07,1.49s0,.01.02.01Z"/>
  <path class="cls-6" d="M9.09,52.31s.06-.03.06-.06-.02-.06-.06-.06-.06.03-.06.06.02.06.06.06Z"/>
  <path class="cls-6" d="M37.38,51.19h.1s.02-.01.02-.02l-.05-1.85s0-.02-.02-.02h-.1s-.02.01-.02.02l.05,1.85s0,.02.02.02Z"/>
  <path class="cls-6" d="M37.45,51.43s.07-.03.07-.07-.03-.07-.07-.07-.07.03-.07.07.03.07.07.07Z"/>
  <path class="cls-6" d="M47.78,52.05h.1s.02-.02.02-.03l-.21-1.84s-.01-.02-.02-.02h-.1s-.02.02-.02.03l.21,1.84s.01.02.02.02Z"/>
  <path class="cls-6" d="M47.85,52.29s.07-.03.07-.07-.03-.07-.07-.07-.07.03-.07.07.03.07.07.07Z"/>
  <path class="cls-6" d="M55.75,47.93h.05s0,0,0,0v-.9s0,0-.01,0h-.05s0,0,0,0v.9s0,0,.01,0Z"/>
  <path class="cls-6" d="M55.78,48.04s.03-.02.03-.04-.02-.04-.03-.04-.03.02-.03.04.02.04.03.04Z"/>
  <path class="cls-6" d="M38.45,52.03h.08s.01,0,.01-.02l-.04-1.49s0-.01-.01-.01h-.08s-.01,0-.01.02l.04,1.49s0,.01.02.01Z"/>
  <path class="cls-6" d="M38.5,52.23s.06-.03.06-.06-.03-.06-.06-.06-.06.03-.06.06.03.06.06.06Z"/>
  <path class="cls-6" d="M20.8,50.58h-.08s-.01.01-.01.02l.07,1.49s0,.01.02.01h.08s.01-.01.01-.02l-.07-1.49s0-.01-.02-.01Z"/>
  <path class="cls-6" d="M20.75,50.5s.06-.03.06-.06-.02-.06-.06-.06-.06.03-.06.06.02.06.06.06Z"/>
  <path class="cls-6" d="M27.69,48.79l-.11.02s-.02.01-.02.02l.27,2s.01.02.02.02l.11-.02s.02-.01.02-.02l-.27-2s-.01-.02-.02-.02Z"/>
  <path class="cls-6" d="M27.6,48.69s.08-.03.08-.08-.03-.08-.08-.08-.08.03-.08.08.03.08.08.08Z"/>
  <path class="cls-6" d="M45.43,48.69l-.11.02s-.02.01-.02.02l.27,2s.01.02.02.02l.11-.02s.02-.01.02-.02l-.27-2s-.01-.02-.02-.02Z"/>
  <path class="cls-6" d="M45.34,48.59s.08-.03.08-.08-.03-.08-.08-.08-.08.03-.08.08.03.08.08.08Z"/>
  <path class="cls-6" d="M54.25,50.42v-.11s-.02-.02-.03-.02l-1.82.16s-.02.01-.02.02v.11s.02.02.03.02l1.82-.16s.02-.01.02-.02Z"/>
  <path class="cls-6" d="M54.42,50.42s.07-.03.07-.07-.03-.07-.07-.07-.07.03-.07.07.03.07.07.07Z"/>
  <path class="cls-6" d="M30.06,49.78h-.12s-.02,0-.02.01l-.11,2.18s0,.02.02.02h.12s.02,0,.02-.01l.11-2.18s0-.02-.02-.02Z"/>
  <path class="cls-6" d="M30.01,49.65s.08-.04.08-.08-.04-.08-.08-.08-.08.04-.08.08.04.08.08.08Z"/>
  <path class="cls-6" d="M15.07,49.42h-.08s-.01,0-.01.02l.03,1.49s0,.01.01.01h.08s.01,0,.01-.02l-.03-1.49s0-.01-.01-.01Z"/>
  <path class="cls-6" d="M15.01,49.34s.06-.03.06-.06-.02-.06-.06-.06-.06.03-.06.06.02.06.06.06Z"/>
  <path class="cls-1" d="M42.69,31.1h0s-.02,0-.02,0c0,0-.01,0-.02.01,0,0-.01.01-.01.02,0,0,0,.02,0,.03v.02s.01.02.02.03h.01s.02.02.03.02h0s.02,0,.02,0c0,0,.01,0,.02-.01,0,0,.01-.01.01-.02,0,0,0-.02,0-.03v-.02s-.01-.02-.02-.03h-.01s-.02-.02-.03-.02Z"/>
  <path class="cls-6" d="M52.57,42.75c0,.34-.27,1.36-1.23,1.39-.96.03-5.59.15-7.84.06-2.25-.09-6.66.83-7.35-.4-.36-.63.17-1.39,1.25-1.97.02-.36.19-.91.39-1.44.12-.78-1.55-2.02-1.86-4.36-.19-1.47-.05-3.23.01-3.33-1.16-.73-1.57-1.91-1.55-2.95.04-2.04,1.41-2.69,1.41-2.69,0,0,.04-2.76.7-3.15.65-.39,2.1,1.72,2.1,1.72,0,0,2.25-.07,3.66,1.78,0,0,2.17-.44,2.54.01.37.45-1.1,2.63-1.26,2.77,0,0,.03.57-.16,1.25.12,0,5.08.42,7.21,4.87,2.16,4.5,1.98,6.12,1.98,6.46h0Z"/>
  <path class="cls-1" d="M52.48,42.75c0,.34-.16.71-.39.95-.16.17-.36.29-.59.33-.14.02-.28.02-.42.02-.84.02-1.67.04-2.51.06-1.11.02-2.21.03-3.32.03-.93,0-1.87-.06-2.8-.02-1.07.05-2.14.17-3.21.21-.49.02-.98.03-1.47,0-.37-.03-.76-.07-1.1-.22-.29-.12-.53-.35-.53-.69-.01-.55.51-.98.91-1.25.07-.05.14-.09.22-.14.06-.04.18-.08.22-.14.03-.05.02-.14.03-.19.01-.09.03-.17.05-.25.04-.18.09-.35.15-.53.03-.09.06-.18.09-.27.03-.08.07-.17.09-.26.04-.3-.14-.6-.28-.84-.23-.39-.49-.75-.71-1.14-.29-.49-.53-1.01-.69-1.56-.19-.67-.25-1.37-.27-2.07-.02-.57,0-1.15.05-1.72,0-.07.01-.14.03-.21,0-.02,0-.05.01-.07,0,0,0-.02,0-.02,0-.02-.01.02,0,0,.03-.05,0-.11-.03-.13-.49-.31-.9-.75-1.16-1.28-.23-.47-.34-.99-.34-1.51,0-.9.3-1.8.97-2.4.12-.11.25-.21.4-.28.03-.01.05-.05.05-.08,0-.58.06-1.16.15-1.73.06-.37.13-.76.3-1.09.05-.1.13-.22.23-.27.1-.04.22,0,.32.04.33.15.6.44.85.7.24.26.45.52.65.8.04.05.08.11.12.17.04.06.09.05.15.05.24,0,.48.03.71.07.94.17,1.84.61,2.52,1.32.11.11.21.23.3.35.02.03.06.03.09.03.34-.07.69-.12,1.03-.15.27-.03.55-.04.82-.03.17,0,.42.02.55.13.05.04.06.07.07.13,0,.08,0,.17-.03.25-.06.24-.16.47-.27.69-.23.47-.5.92-.8,1.35-.05.07-.09.13-.14.19-.04.05-.07.08-.07.15,0,.4-.05.8-.16,1.19-.02.07.03.12.09.12.16.01.27.03.42.05.35.06.7.14,1.05.23,1.07.3,2.11.77,3.03,1.42.56.4,1.07.86,1.52,1.39.54.64.94,1.35,1.29,2.11.64,1.38,1.24,2.8,1.58,4.29.13.55.21,1.09.2,1.65,0,.02,0,.05,0,.07,0,.13.19.13.19,0,0-.15,0-.31,0-.46-.02-.34-.07-.67-.13-1-.27-1.38-.8-2.71-1.36-3.98-.37-.83-.75-1.66-1.29-2.39-.43-.59-.94-1.11-1.5-1.56-.93-.74-2.01-1.28-3.13-1.64-.59-.19-1.2-.33-1.82-.39-.01,0-.03,0-.04,0l.09.12c.11-.41.18-.85.16-1.27l-.03.07c.08-.08.15-.19.21-.28.12-.17.24-.35.35-.53.26-.43.52-.88.68-1.36.06-.16.11-.35.09-.53-.02-.16-.12-.27-.26-.34-.19-.08-.4-.1-.6-.1-.25,0-.5,0-.75.03-.37.04-.73.09-1.09.16l.09.03c-.83-1.08-2.11-1.69-3.43-1.79-.1,0-.2-.01-.3-.01l.08.05c-.19-.27-.39-.54-.61-.79-.32-.37-.68-.79-1.14-.98-.17-.07-.36-.08-.51.03-.16.11-.25.31-.33.49-.2.5-.27,1.07-.32,1.61-.04.37-.06.75-.07,1.13l.05-.08c-.13.06-.26.16-.37.26-.28.23-.51.52-.68.84-.51.95-.54,2.19-.13,3.18.27.64.74,1.17,1.31,1.53l-.03-.13s-.03.11-.04.16c-.02.1-.03.21-.04.31-.03.33-.04.67-.05,1-.01.84.01,1.7.21,2.52.17.69.46,1.33.82,1.94.26.44.59.86.81,1.33.08.16.16.36.09.52-.17.45-.35.93-.38,1.41l.05-.08c-.4.22-.81.49-1.1.86-.2.26-.36.59-.3.93.08.52.57.76,1.02.87.63.15,1.29.15,1.93.13.78-.02,1.56-.09,2.34-.15.7-.05,1.41-.11,2.12-.09.68.02,1.36.04,2.04.04,1.53,0,3.06-.02,4.59-.06.45-.01.9-.02,1.35-.04.35-.01.68-.16.91-.43.19-.22.31-.49.38-.77.02-.1.04-.2.04-.29,0-.13-.19-.13-.19,0h0Z"/>
  <path class="cls-6" d="M47.93,40.76c-.17,1.97-2.55.43-5.93.21-.1,0-.21-.01-.31-.02-.19,0-.37,0-.55,0-1.5.02-2.82.38-3.74.88"/>
  <path class="cls-1" d="M47.84,40.76c-.02.21-.07.44-.21.61-.12.15-.29.22-.46.25-.23.05-.48.03-.71,0-.31-.03-.63-.1-.94-.16-.8-.17-1.59-.35-2.4-.47-.98-.14-1.98-.19-2.97-.08-.97.11-1.93.36-2.8.83-.11.06-.01.23.1.17,1.7-.91,3.73-1,5.6-.73.82.12,1.63.31,2.44.48.55.11,1.14.26,1.7.17.22-.04.43-.13.58-.31.17-.21.24-.48.26-.75.01-.12-.18-.12-.19,0h0Z"/>
  <path class="cls-1" d="M37.88,40.42c.08-.22.09-.47.09-.71,0-.3-.04-.6-.08-.9-.08-.56-.19-1.11-.33-1.65-.03-.12-.06-.23-.09-.35-.03-.12-.22-.07-.18.05.09.31.16.63.23.95.12.58.24,1.18.26,1.78,0,.26.01.53-.08.78-.04.12.14.17.18.05h0Z"/>
  <path class="cls-6" d="M43.14,37.81s-1.77,1.19-1.14,3.18l1.14-3.18Z"/>
  <path class="cls-1" d="M43.09,37.73c-.22.15-.42.35-.59.55-.37.43-.63.95-.71,1.52-.05.41,0,.82.12,1.22.04.12.22.07.18-.05-.2-.63-.17-1.29.11-1.88.19-.4.47-.75.79-1.03.07-.06.11-.1.19-.15.1-.07,0-.24-.1-.17h0Z"/>
  <path class="cls-6" d="M40.75,40.93s1.09-1.21.54-2.38l-.54,2.38Z"/>
  <path class="cls-1" d="M40.82,40.99c.4-.45.7-1.08.72-1.7,0-.28-.05-.55-.17-.8-.05-.11-.22-.01-.16.1.23.51.15,1.07-.08,1.56-.12.25-.26.5-.45.7-.08.09.05.23.13.14h0Z"/>
  <path class="cls-6" d="M39.03,33.53c3.02.63,4.02-.91,4.35-2.11l-4.35,2.11Z"/>
  <path class="cls-1" d="M39.01,33.63c.9.19,1.88.26,2.75-.1.58-.24,1.06-.67,1.38-1.23.15-.26.26-.55.34-.84.03-.12-.15-.17-.18-.05-.14.51-.38.99-.74,1.36-.48.5-1.14.75-1.82.81-.56.05-1.13-.01-1.68-.13-.12-.02-.17.16-.05.19h0Z"/>
  <path class="cls-1" d="M38.84,29.52s-.37-.76-.25-.93c.12-.17.24-.25.7-.01.46.24.44.51.38.63-.06.12-.83.32-.83.32Z"/>
  <path class="cls-1" d="M38.81,29.37c-.08.16-.16.33-.24.49-.04.08-.02.15-.01.23.04.34.16.73.48.9.25.14.55.09.81-.02.1-.04.06-.21-.04-.17-.2.08-.44.15-.64.06-.15-.07-.24-.2-.31-.35-.06-.13-.09-.28-.11-.43,0-.02,0,.02,0,0,0,0,0-.01,0-.02,0-.01,0-.02,0-.03,0-.02,0-.04,0-.06,0,0,0-.02,0-.03,0-.02-.03.06,0,.02.05-.09.09-.19.14-.29l.11-.22c.05-.1-.1-.19-.15-.09h0Z"/>
  <path class="cls-1" d="M38.57,29.88c-.21.23-.6.46-.91.26-.17-.11-.27-.31-.35-.5-.04-.1-.2-.06-.16.05.13.34.36.69.74.71.25.01.48-.12.67-.27.05-.04.09-.08.13-.12.08-.08-.04-.2-.12-.12Z"/>
  <path class="cls-1" d="M40.15,28.82s0,0,.01,0c0,0,.01,0,.02,0-.02,0,0,0,.01,0,.05-.02.1-.03.15-.04.05,0,.13,0,.19,0,.08.01.16.05.23.09.11.08.19.19.26.3.05.08.17,0,.12-.07-.12-.21-.29-.39-.53-.45-.14-.04-.3-.03-.43.02-.03.01-.06.02-.09.04-.08.04,0,.17.07.12h0Z"/>
  <path class="cls-1" d="M38.65,28c-.03-.28-.23-.52-.48-.62-.14-.05-.29-.06-.43-.05-.04,0-.07.03-.07.07,0,.04.03.08.07.07.12-.01.24,0,.35.03.08.02.16.07.22.12.06.05.09.1.13.17,0,.01.01.03.02.04,0,0,0,.01,0,.02,0,0,0,0,0,0,0-.01,0,0,0,0,0,.02.02.05.02.07,0,.02,0,.04.01.06,0,0,0,.04,0,0,0,.04.03.07.07.07.03,0,.07-.03.07-.07h0Z"/>
  <path class="cls-2" d="M37.82,26s-.9-1.41-1.21-1.43c-.32-.01-.41,2.3-.41,2.3,0,0,.63-.69,1.62-.87Z"/>
  <path class="cls-2" d="M42.61,28.12s1.55-.53,1.81-.34c.26.19-1.07,2.06-1.07,2.06,0,0-.08-.94-.74-1.72Z"/>
  <path class="cls-2" d="M36.03,32.73s4.29,1.9,6.22.53c0,0-1.42,1.91-6.29.06,0,0,.02-.41.07-.59h0Z"/>
  <path class="cls-6" d="M10.19,34.13c1.02.87,2.36.64,2.94-.3,0,0,.08.23.38.19,0,0-.4,1.27-.03,2.13.38.86-.15,1.57-.15,1.57,0,0-.93-.1-.96,1.23,0,0-1.23.57-.45,1.92,0,0-.5,1.2.19,1.73,0,0-.16,1.48,1.53,1.66,1.69.17,3.23-.97,3.21-1.74-.02-.77.52-1.13.02-1.83,0,0,.5-.93.03-1.24,0,0,.56-.98,0-1.14,0,0,.34-.4.25-.93,0,0,2.48,1.23,5.25,1.3,0,.08.01.16,0,.25,0,0-.61.1-.68.93-.06.83.33,1.06.33,1.06,0,0-.35.32-.24.83,0,0-.57.74.14,1.23,0,0-.35.37-.19.79.16.41.99.79,2.29.67.82-.07,1.49-.43,1.76-.84.32.07,1.61.33,2.09-.05.55-.44.07-1.03.07-1.03.38-.84-.11-1.73-.11-1.73.93-1.33.06-1.86.06-1.86.54-.79-.31-1.14-.31-1.14,0-.66.16-.57.32-1.43.16-.86-.34-1.12-.34-1.12.74-.93-.33-1.7-.33-1.7.41-.41.33-1.2.33-1.2,0,0-.39-.99,0-1.51,2.49-.2,3.03-1.24,3.03-1.24,1.42.07,1.3-1.08,1.3-1.08,0,0,.64-.3.64-1.1,0-.25-.08-.45-.19-.61.54.11.63-.32.63-.32,0,0,2.64-.11,2.72-2.52.08-2.4-2.1-4.03-2.1-4.03.49-1.47-.9-1.36-.9-1.36.64-1.87-.9-1.86-.9-1.86.44-1.99-1.63-1.35-1.63-1.35-.18-2.66-2.38-1.58-2.38-1.58-.72-2.13-2.18-.48-2.18-.48-1.14-1.64-1.85-.05-1.85-.05-1.07-1.33-1.62.15-1.62.15-1.93-.81-2.03.93-2.03.93-1.15-.79-1.51.68-1.51.68-1.06.15-.8,1.27-.8,1.27-1.08.03-.96,1.26-.96,1.26-1.42.03-1.08,1.74-1.08,1.74,0,0-2.47,1.4-2.2,4.14.24,2.45,1.95,3.66,3.84,3.69-.1,1.04,1.4,1.44,1.4,1.44.11.63.7.52.7.52.53,1.34,1.65.51,1.65.51,0,0,.22.18.73.41-.25,1.07-1.07,1-1.07,1,0,0-3.64-.38-6.87,1.64,0,0-.06-.14-.28-.1,0,0,.36-1.34-.23-1.66-.58-.32-.66-1.13-1.99-.94-1.33.19-1.76,1.13-1.78,1.45-.03.32-.5,1.85.53,2.72h0Z"/>
  <path class="cls-1" d="M10.11,34.21c.49.41,1.1.64,1.73.56.57-.07,1.07-.39,1.38-.88l-.2-.03c.08.21.28.3.48.28l-.11-.14c-.18.56-.25,1.19-.15,1.77.04.22.13.41.2.63.06.21.07.44.04.66-.04.22-.12.44-.25.62l.1-.06c-.18-.02-.39.04-.54.14-.4.25-.52.75-.53,1.2l.05-.1c-.23.11-.43.3-.57.52-.32.49-.19,1.08.08,1.56v-.11c-.24.58-.34,1.43.21,1.87l-.03-.08c-.03.24.02.5.1.72.19.5.6.83,1.09.97.77.22,1.63.08,2.35-.24.53-.24,1.15-.65,1.36-1.24.05-.15.04-.29.05-.44.01-.21.08-.42.14-.62.12-.41.11-.76-.14-1.12v.11c.21-.4.43-1.08-.01-1.4l.04.16c.21-.36.5-1.12-.07-1.3l.05.19c.24-.28.33-.67.28-1.04l-.16.13c1.11.55,2.33.91,3.54,1.12.58.11,1.17.17,1.77.19l-.11-.11c0,.08.01.17,0,.25l.08-.11c-.41.07-.68.5-.74.89-.06.39-.03,1.06.36,1.3l-.02-.18c-.25.23-.33.61-.27.94l.03-.11c-.12.15-.2.33-.24.52-.07.37.11.67.4.88l-.02-.18c-.2.22-.32.56-.23.85.08.26.31.43.53.55.35.17.75.25,1.14.27.51.03,1.03,0,1.52-.17.41-.14.83-.36,1.08-.74l-.13.05c.59.13,1.28.26,1.87.08.32-.09.6-.35.62-.71.01-.23-.08-.47-.22-.64l.02.14c.25-.58.19-1.29-.11-1.84v.12c.29-.42.57-.99.39-1.52-.07-.19-.19-.39-.37-.5l.04.16c.2-.3.28-.66.05-.97-.11-.15-.26-.26-.43-.33l.08.11c0-.59.32-1.09.36-1.68.02-.35-.09-.8-.42-.97l.02.18c.3-.39.38-.85.15-1.3-.12-.23-.3-.43-.5-.58l.02.18c.21-.22.31-.5.35-.8.02-.16.04-.35,0-.51-.04-.17-.11-.33-.14-.5-.05-.31-.06-.65.13-.91l-.1.06c.73-.06,1.48-.2,2.15-.52.31-.15.63-.35.86-.62.04-.05.08-.1.11-.16l-.1.06c.48.02,1.01-.09,1.27-.55.1-.19.16-.43.14-.64l-.05.1c.66-.31.89-1.26.49-1.87l-.13.17c.31.05.68-.04.77-.4l-.11.08c.86-.04,1.8-.43,2.33-1.14.53-.71.58-1.56.42-2.37-.15-.81-.57-1.6-1.08-2.25-.29-.37-.63-.72-1-1l.05.13c.15-.47.19-1.06-.29-1.35-.21-.12-.48-.18-.71-.16l.11.14c.19-.57.29-1.32-.24-1.74-.21-.17-.5-.26-.77-.26l.11.14c.11-.51.12-1.14-.37-1.43-.33-.2-.74-.18-1.11-.12-.09.02-.19.04-.28.06l.14.11c-.05-.69-.25-1.48-.92-1.78-.41-.19-.89-.15-1.31-.02-.11.03-.21.07-.31.12l.16.07c-.18-.53-.5-1.13-1.11-1.17-.39-.03-.76.2-1.05.44-.07.06-.15.13-.21.2l.17.02c-.33-.47-.86-1.02-1.47-.71-.25.13-.46.39-.58.65l.17-.02c-.32-.39-.83-.8-1.32-.45-.22.15-.38.4-.48.65l.14-.08c-.49-.2-1.12-.35-1.6-.03-.28.19-.45.5-.53.83-.02.08-.03.16-.04.25l.17-.1c-.42-.28-.93-.37-1.3.03-.18.19-.31.46-.38.71l.08-.08c-.42.06-.76.32-.87.75-.05.21-.06.45,0,.67l.11-.14c-.44.02-.81.25-.97.68-.08.21-.12.47-.09.7l.11-.11c-.58.02-1.03.34-1.17.93-.07.31-.08.64-.02.95l.05-.13c-.27.15-.52.36-.75.57-.51.46-.94,1.03-1.2,1.67-.69,1.64-.24,3.79,1.13,4.91.72.59,1.61.87,2.52.89l-.11-.11c-.07.84.79,1.37,1.48,1.55l-.08-.08c.08.42.43.67.84.6l-.13-.05c.19.47.56.86,1.1.82.25-.02.5-.11.7-.26l-.13-.02c.22.18.49.31.75.42l-.05-.13c-.11.46-.42.92-.92.92-.17,0-.33-.02-.5-.03-1.25-.03-2.51.13-3.71.47-.97.27-1.9.68-2.76,1.21l.15.04c-.06-.14-.24-.17-.37-.16l.11.14c.13-.47.23-1.16-.07-1.59-.09-.13-.22-.19-.34-.28-.1-.08-.19-.18-.28-.28-.2-.22-.42-.43-.7-.53-.41-.15-.9-.1-1.31.02-.38.1-.74.3-1.03.58-.19.19-.36.43-.44.7-.06.18-.07.37-.1.56-.15.88-.08,1.83.62,2.45.11.09.27-.07.16-.16-.59-.51-.69-1.3-.59-2.04.05-.41.1-.8.35-1.14.45-.61,1.35-.93,2.08-.8.29.05.52.21.72.42.17.18.33.37.55.5.29.18.3.57.29.89-.01.22-.04.44-.1.65-.02.07.03.15.11.14.06,0,.15-.02.18.05.03.06.1.07.15.04,1.46-.91,3.13-1.42,4.82-1.59.52-.05,1.04-.08,1.56-.06.16,0,.33.03.5.02.6-.02.98-.53,1.12-1.09.01-.04,0-.11-.05-.13-.18-.08-.37-.17-.54-.28-.04-.03-.09-.06-.13-.09,0,0-.08-.06-.03-.02-.04-.03-.09-.05-.13-.02-.16.12-.36.2-.55.23-.48.07-.78-.28-.95-.7-.02-.05-.08-.06-.13-.05.03,0-.03,0-.05,0-.06,0-.12,0-.18-.02-.2-.06-.3-.22-.34-.42,0-.04-.04-.07-.08-.08-.59-.16-1.37-.6-1.31-1.33,0-.06-.05-.11-.11-.11-.77-.02-1.54-.23-2.18-.68-.64-.45-1.13-1.18-1.37-1.97-.26-.87-.28-1.8.04-2.66.23-.64.63-1.2,1.11-1.66.25-.24.52-.47.82-.64.05-.03.06-.08.05-.13-.04-.22-.05-.52,0-.76.04-.2.11-.4.25-.55.19-.2.45-.28.72-.28.06,0,.12-.05.11-.11-.02-.18,0-.37.05-.54.11-.38.41-.59.79-.61.07,0,.12-.07.11-.14-.03-.15-.03-.33,0-.5.08-.38.36-.58.73-.64.04,0,.07-.05.08-.08.05-.2.15-.4.27-.56.3-.37.71-.3,1.08-.05.07.05.16-.02.17-.1,0-.06.02-.13.04-.22.04-.17.11-.33.21-.46.4-.53,1.12-.36,1.63-.14.06.02.12-.03.14-.08,0-.02,0,.01.01-.03.02-.04.04-.09.07-.13.07-.12.15-.24.26-.33.4-.33.83.07,1.09.39.04.05.15.04.17-.02.09-.2.24-.4.42-.52.49-.33.97.19,1.24.58.04.06.12.08.17.02.2-.22.46-.42.73-.52.21-.08.44-.09.64.02.33.18.51.58.63.93.03.07.09.1.16.07,0,0,0,0,.01,0,.04-.01,0,0,.02-.01.05-.02.1-.04.15-.06.16-.05.32-.1.49-.12.45-.05.9.07,1.17.46.25.35.33.79.36,1.21,0,.07.07.13.14.11.45-.14,1.21-.22,1.46.3.14.28.09.62.03.91-.02.07.03.15.11.14.2,0,.43.07.61.2.48.35.35,1.03.19,1.52-.02.07.04.15.11.14.18-.02.38.02.55.1.43.21.37.72.24,1.12-.02.05.01.1.05.13.04.03.02.02.05.04.06.05.12.1.17.15.19.17.36.34.53.53.51.57.92,1.25,1.14,1.99.22.77.26,1.68-.16,2.39-.3.5-.8.84-1.34,1.03-.31.11-.63.19-.95.2-.05,0-.1.03-.11.08-.05.22-.3.27-.49.24-.09-.02-.18.08-.13.17.33.51.15,1.3-.41,1.56-.03.02-.06.06-.05.1.02.17-.02.35-.09.49-.21.42-.68.49-1.09.48-.04,0-.08.02-.1.06-.05.09-.13.18-.23.27-.27.25-.6.42-.94.54-.27.1-.55.18-.83.24-.18.04-.36.07-.54.09-.15.02-.39-.01-.48.11-.3.4-.18,1.04-.04,1.48,0,.03.02.06.03.08.02.04,0-.03,0,0,.01.08,0,.17,0,.25-.01.31-.08.64-.3.86-.05.06-.04.14.02.18.11.08.28.27.38.42.22.37.19.76-.07,1.1-.04.05-.05.14.02.18.33.17.34.67.29.99-.05.28-.13.54-.23.81-.08.21-.1.43-.1.66,0,.05.04.09.08.11-.05-.02,0,0,.01,0,.03.01.05.03.07.04.07.05.14.1.2.17.2.24.12.52-.04.75-.03.05,0,.13.04.16.04.03.05.03.09.08.08.08.14.18.17.28.16.47-.11.97-.37,1.34-.02.03-.02.08,0,.11.26.48.33,1.11.11,1.61-.02.05-.02.1.02.14,0,0,0,0,.02.03.02.04.04.07.06.11.05.11.09.24.07.36-.04.34-.38.48-.66.52-.51.07-1.05-.01-1.55-.13-.05-.01-.1,0-.13.05-.25.38-.72.58-1.13.69-.53.14-1.11.16-1.65.06-.33-.06-.72-.16-.96-.41-.22-.23-.15-.6.06-.82.05-.06.04-.14-.02-.18-.36-.26-.36-.66-.13-1.02,0-.01.02-.03.03-.04-.02.04.01-.02.02-.04.01-.06-.01-.13-.02-.2,0-.07,0-.14.02-.2.03-.14.1-.28.21-.38.05-.05.04-.14-.02-.18-.05-.03-.12-.13-.16-.21-.13-.26-.14-.6-.09-.88.06-.31.26-.63.58-.69.05,0,.08-.06.08-.11,0-.08,0-.17,0-.25,0-.06-.05-.11-.11-.11-1.66-.04-3.33-.47-4.86-1.13-.11-.05-.22-.1-.33-.15-.09-.05-.18.03-.16.13.04.28-.05.61-.22.82-.05.07-.04.16.05.19.37.12.06.75-.07.97-.03.06,0,.12.04.16.32.23.08.81-.07,1.08-.02.03-.02.08,0,.12.17.25.24.49.16.8-.06.25-.15.48-.18.73-.02.21,0,.39-.11.58-.1.19-.25.35-.41.49-.43.37-.97.61-1.51.73-.54.12-1.2.14-1.73-.11-.53-.25-.78-.76-.77-1.34,0-.13-.1-.17-.18-.26-.14-.18-.19-.41-.18-.64,0-.19.03-.38.08-.57.02-.06.04-.12.06-.18,0-.02.01-.03.02-.05.02-.05,0,.02,0-.01.02-.14-.12-.3-.16-.44-.04-.13-.08-.26-.08-.4,0-.22.05-.42.16-.6.12-.18.3-.34.49-.43.04-.02.05-.06.05-.1.01-.39.11-.85.49-1.04.08-.04.18-.07.26-.07.05,0,.12.01.16-.02.08-.05.13-.19.17-.26.09-.2.15-.42.17-.64.02-.31-.06-.59-.17-.88-.1-.26-.13-.54-.12-.82,0-.39.07-.8.18-1.17.02-.07-.04-.15-.11-.14-.08,0-.17,0-.23-.06-.02-.02-.05-.08-.04-.05-.03-.09-.15-.11-.2-.03-.28.43-.73.72-1.23.77-.56.07-1.11-.14-1.54-.5-.11-.09-.27.07-.16.16h0Z"/>
  <path class="cls-1" d="M20.77,22.9s0,0,.01.01c0,0,0,0,.01.01.02.02-.01-.02,0,0,.03.05.07.1.1.15.09.16.16.33.2.51.05.23.03.47-.05.69-.05.14-.13.27-.22.38-.13.15-.27.26-.42.39-.06.05-.06.11-.08.18-.03.11-.07.21-.11.3-.16.35-.4.65-.71.88-.61.45-1.38.6-2.11.59-.14,0-.14.23,0,.23.82,0,1.67-.17,2.32-.7.35-.29.62-.67.77-1.1.03-.08.06-.17.07-.25l-.05.07c.43-.31.8-.75.83-1.32.02-.35-.1-.7-.28-.99-.04-.07-.09-.14-.14-.2-.09-.11-.25.05-.16.16h0Z"/>
  <path class="cls-1" d="M17.54,27.12s0-.03,0-.04v.04s0-.01,0-.02c0-.02,0-.04,0-.05,0-.02,0-.03-.02-.05,0-.02-.02-.03-.03-.04-.01-.01-.03-.02-.04-.02h-.04s-.05,0-.07.01l-.03.02s-.03.04-.03.06c0,.03,0,.06-.01.1,0,.02,0,.04.01.05,0,.02.01.03.03.04.01.01.03.02.04.03.02,0,.03.01.05.01h.04s.04-.02.06-.04l.02-.03s.02-.04.02-.07h0Z"/>
  <path class="cls-1" d="M32.45,26.73c-.17-.25-.42-.45-.7-.56l.08.14c.14-.43.17-.9-.02-1.33-.07-.17-.18-.34-.32-.46l.03.11c.13-.41.19-.87.03-1.29-.06-.16-.15-.32-.29-.43-.11-.09-.22.11-.11.2-.03-.03-.01-.01,0,0,.02.02.04.04.06.06.04.05.1.15.13.24.14.37.08.78-.04,1.15-.01.03,0,.09.03.11.44.36.45,1.05.28,1.56-.02.06.02.12.08.14,0,0,.02.01,0,0,.01,0,.03.01.04.02.05.03.1.05.15.08.15.09.28.21.38.36.08.12.27,0,.19-.11h0Z"/>
  <path class="cls-1" d="M30.75,23.22s-.04.02-.09.04c-.09.03-.18.05-.27.06-.29.02-.55-.11-.73-.35-.03-.04-.08-.07-.13-.03-.39.23-.97.4-1.38.13-.2-.13-.32-.36-.4-.58-.02-.07-.13-.1-.17-.02-.07.15-.19.28-.33.36-.39.21-.74-.26-.92-.55-.04-.07-.15-.06-.17.02-.08.35-.31.81-.72.78-.23-.02-.43-.17-.6-.31-.05-.04-.14-.03-.16.04-.08.36-.38.66-.77.65-.25,0-.49-.12-.71-.24-.04-.02-.08-.01-.12.02-.12.11-.29.23-.46.28-.11.03-.24.04-.33-.03-.16-.12-.21-.38-.23-.56-.01-.12-.21-.13-.19,0,.04.33.15.76.52.81.24.03.48-.09.67-.23.05-.04.11-.08.16-.13l-.12.02c.36.2.81.38,1.22.19.23-.1.39-.31.49-.54.02-.06.05-.11.06-.18l-.16.04c.3.26.71.5,1.1.29.24-.13.39-.4.49-.65.02-.06.04-.13.06-.2l-.17.02c.2.31.51.71.91.7.24-.01.44-.17.58-.36.03-.05.07-.09.09-.14l-.17-.02c.14.43.43.78.89.85.33.05.66-.04.96-.18.07-.03.14-.06.2-.1l-.13-.03c.21.28.51.46.86.45.17,0,.34-.05.49-.13.11-.06.01-.23-.1-.17h0Z"/>
  <path class="cls-1" d="M22.38,38.85s.02,0,.03,0c.02,0,.04,0,.06-.01.02,0,.04-.02.05-.03.02-.02.03-.03.03-.05.01-.02.01-.04.01-.06v-.04s-.03-.05-.05-.07l-.03-.03s-.05-.02-.08-.02c-.01,0-.02,0-.03,0-.02,0-.04,0-.06.01-.02,0-.04.02-.05.03-.02.02-.03.03-.03.05,0,.02-.01.04-.01.06v.04s.03.05.05.07l.03.03s.05.02.08.02Z"/>
  <path class="cls-1" d="M26.62,36.15c-.05.93-.53,1.77-1.22,2.35-.03.03-.09.08-.15.11-.07.04-.08.16,0,.2.21.11.34.29.3.54-.02.12-.05.22-.12.32-.03.05,0,.12.04.16.28.2.14.62-.01.86-.03.06,0,.12.04.16.38.28.45.76.39,1.21-.02.18-.07.36-.13.54-.02.06-.04.12-.06.17,0,0,0,.02-.01.03.01-.03,0,0,0,0,0,0,0,.01,0,.02-.02.03-.02.08,0,.11.15.21.15.42.02.64-.08.12.11.24.19.11.17-.28.18-.6-.02-.87v.11c.23-.51.36-1.18.16-1.72-.09-.23-.23-.41-.42-.55l.04.16c.23-.36.32-.89-.07-1.18l.04.16c.08-.13.13-.3.15-.45.03-.32-.15-.57-.41-.71v.2c.18-.12.34-.27.49-.42.34-.35.61-.76.78-1.22.12-.32.19-.67.21-1.01,0-.15-.21-.15-.22,0Z"/>
  <path class="cls-1" d="M22.78,36.24c-.31.1-.56.37-.68.67-.12.3-.12.62-.06.93.06.29.18.56.21.85.02.14.24.15.22,0-.03-.27-.12-.51-.19-.77-.07-.28-.09-.59,0-.87.06-.18.18-.35.33-.46.05-.04.11-.07.16-.1.03-.01,0,0,.03-.01,0,0,.01,0,.02,0,.14-.04.08-.26-.06-.22h0Z"/>
  <path class="cls-1" d="M27.18,27.84s-.7.05-.68-.61c.02-.66.67-.7,1.06-.71.39,0,.92.23.93.66,0,.43-.31.63-.61.66,0,0,.21.69.96.22,0,0,.25-.11.31.03.05.14-.05.5-.44.56-.39.06-.89-.32-.96-.32s-.92.51-1.59.52c-.67,0-1.01-.67-.69-.85.32-.18.28.34.95.26.66-.07.74-.2.77-.43h0Z"/>
  <path class="cls-1" d="M23.66,25.29s0,0,0,0c.03-.04-.02.02,0,0,.02-.03.05-.06.07-.09.09-.1.18-.19.28-.27,0,0,.02-.01.03-.02,0,0-.02.02,0,0,.02-.01.03-.02.05-.04.04-.03.07-.05.11-.08.08-.05.16-.1.25-.13.05-.02.17-.06.25-.08.1-.02.18-.03.29-.04.28,0,.55.08.79.21.21.11.39-.21.18-.33-.48-.26-1.03-.35-1.55-.16-.35.13-.66.35-.91.63-.06.06-.11.13-.16.2-.06.08-.01.21.07.26.09.06.19.02.25-.07h0Z"/>
  <path class="cls-1" d="M30.43,24.99c-.29-.43-.8-.74-1.31-.73-.26,0-.51.08-.74.21-.21.11-.02.44.18.33.21-.11.43-.17.66-.15.16.01.33.08.47.17.04.02.07.05.11.07,0,0,.05.04.03.02-.02-.01.03.02.03.02.05.04.1.09.15.14.03.03.06.07.09.11.04.04-.02-.04,0,0,.06.08.16.12.25.07.08-.05.12-.17.07-.26h0Z"/>
  <path class="cls-2" d="M15.82,19.4s-2.23,1.34-2.15,3.65c.07,2.32,1.54,3.84,3.5,3.94,1.97.1,2.93-.78,3.19-1.91,0,0,.86-.54.76-1.33-.11-.79-.6-1.11-.6-1.11,0,0,.38-1.65-.65-1.85,0,0-.16-1.31-1.14-1.38-.98-.07-1.26.35-1.26.35,0,0-.85-.9-1.64-.37h0Z"/>
  <path class="cls-2" d="M31.21,22.88s-.36-1.14.45-1.41c0,0-.11-.56.32-.64,0,0-.24-.88.44-1.1.68-.22,1.11.3,1.11.3,0,0,1.55,1.17,1.97,2.96.41,1.79-.44,3.2-2.58,3.39,0,0-.05.36-.5.31,0,0-.24-.33-.56-.47,0,0,.31-1.07-.32-1.65,0,0,.4-1.17-.32-1.69h0Z"/>
  <path class="cls-2" d="M21.99,30.03s2.91,1.02,5.53.71c0,0-.32.25-.2,1.02,0,0-4.4-.06-5.81-.9,0,0,.33-.23.48-.83Z"/>
  <path class="cls-6" d="M44.76,17.04v1.83c0,.11-.08.2-.19.2h-1.62c-.1,0-.19.09-.19.2v1.67c0,.11-.08.2-.19.2h-1.77c-.1,0-.19-.09-.19-.2v-1.67c0-.11-.08-.2-.19-.2h-1.62c-.1,0-.19-.09-.19-.2v-1.83c0-.11.08-.2.19-.2h1.62c.1,0,.19-.09.19-.2v-1.67c0-.11.08-.2.19-.2h1.77c.1,0,.19.09.19.2v1.67c0,.11.08.2.19.2h1.62c.1,0,.19.09.19.2Z"/>
  <path class="cls-1" d="M37.44,41.83s-.34,1.79.39,2.55c0,0-1.66.03-1.8-.96-.13-.99,1.41-1.59,1.41-1.59h0Z"/>
  <path class="cls-3" d="M35.67,42.54s-.75,1.76,1.42,1.89c0,0-1.75-.46-.97-1.66l-.46-.23Z"/>
</svg>